<svg width="24" height="24" viewBox="0 0 24 24" fill="none" xmlns="http://www.w3.org/2000/svg">
<path d="M6.5 16.5C8.15685 16.5 9.5 15.1569 9.5 13.5C9.5 11.8431 8.15685 10.5 6.5 10.5C4.84315 10.5 3.5 11.8431 3.5 13.5C3.5 15.1569 4.84315 16.5 6.5 16.5Z" stroke-width="2"/>
<path d="M6.5 10.5C6.5 7.75 7.5 2.5 12 2.5C14.25 2.5 18.36 3.666 16.768 10.2805C16.628 10.8635 16.077 11.9875 16.077 11.9875L15.275 13.7885C14.4455 15.459 13.374 19.727 16.768 21.3055C17.797 21.784 20.0085 21.475 20.5 19.3005" stroke-width="2" stroke-linecap="round" stroke-linejoin="round"/>
</svg>
