<svg width="24" height="24" viewBox="0 0 24 24" fill="none" xmlns="http://www.w3.org/2000/svg">
<path fill-rule="evenodd" clip-rule="evenodd" d="M17.25 10.5C17.25 11.3864 17.0754 12.2642 16.7362 13.0831C16.3969 13.9021 15.8997 14.6462 15.2729 15.273C14.6461 15.8998 13.902 16.397 13.0831 16.7362C12.2641 17.0754 11.3864 17.25 10.5 17.25C9.61354 17.25 8.7358 17.0754 7.91685 16.7362C7.09791 16.397 6.35379 15.8998 5.727 15.273C5.1002 14.6462 4.603 13.9021 4.26378 13.0831C3.92456 12.2642 3.74997 11.3864 3.74997 10.5C3.74997 8.70979 4.46113 6.9929 5.727 5.72703C6.99287 4.46116 8.70976 3.75 10.5 3.75C12.2902 3.75 14.0071 4.46116 15.2729 5.72703C16.5388 6.9929 17.25 8.70979 17.25 10.5ZM16.02 17.61C14.2115 19.014 11.936 19.676 9.65667 19.4612C7.37732 19.2465 5.26548 18.1711 3.75109 16.4541C2.2367 14.7371 1.43359 12.5074 1.50527 10.2191C1.57695 7.9308 2.51802 5.75581 4.1369 4.13693C5.75578 2.51805 7.93077 1.57698 10.2191 1.5053C12.5074 1.43362 14.737 2.23673 16.4541 3.75112C18.1711 5.26552 19.2464 7.37735 19.4612 9.6567C19.6759 11.936 19.0139 14.2116 17.61 16.02L21.795 20.205C21.9055 20.308 21.9941 20.4322 22.0556 20.5702C22.1171 20.7082 22.1502 20.8572 22.1529 21.0082C22.1555 21.1593 22.1277 21.3093 22.0712 21.4494C22.0146 21.5895 21.9304 21.7167 21.8235 21.8236C21.7167 21.9304 21.5894 22.0146 21.4494 22.0712C21.3093 22.1278 21.1592 22.1555 21.0082 22.1529C20.8571 22.1502 20.7082 22.1172 20.5702 22.0557C20.4322 21.9942 20.308 21.9055 20.205 21.795L16.02 17.61Z" fill="#2395FF"/>
</svg>
