<svg width="75" height="75" viewBox="0 0 75 75" fill="none" xmlns="http://www.w3.org/2000/svg">
<path d="M68.75 37.5C68.75 54.7594 54.7594 68.75 37.5 68.75C20.2406 68.75 6.25 54.7594 6.25 37.5C6.25 20.2406 20.2406 6.25 37.5 6.25C54.7594 6.25 68.75 20.2406 68.75 37.5Z"  stroke-opacity="0.6" stroke-width="1.5" stroke-linecap="round" stroke-linejoin="round"/>
<path d="M37.5 68.75C47.8562 68.75 56.25 54.7594 56.25 37.5C56.25 20.2406 47.8562 6.25 37.5 6.25M34.375 21.875H34.4031M31.25 45.3125C31.25 46.5557 30.7561 47.748 29.8771 48.6271C28.998 49.5061 27.8057 50 26.5625 50C25.3193 50 24.127 49.5061 23.2479 48.6271C22.3689 47.748 21.875 46.5557 21.875 45.3125C21.875 44.0693 22.3689 42.877 23.2479 41.9979C24.127 41.1189 25.3193 40.625 26.5625 40.625C27.8057 40.625 28.998 41.1189 29.8771 41.9979C30.7561 42.877 31.25 44.0693 31.25 45.3125Z" stroke-opacity="0.6" stroke-width="1.5" stroke-linecap="round" stroke-linejoin="round"/>
</svg>
