<svg width="24" height="24" viewBox="0 0 24 24" fill="none" xmlns="http://www.w3.org/2000/svg">
<path d="M15 8.5C17 8.5 20.544 8.444 20.9795 11.82C21.2085 13.596 19.619 16.337 12 21.5" stroke="black" stroke-width="2" stroke-linecap="round" stroke-linejoin="round"/>
<path d="M8 5.5C8 5.76522 8.10536 6.01957 8.29289 6.20711C8.48043 6.39464 8.73478 6.5 9 6.5C9.26522 6.5 9.51957 6.39464 9.70711 6.20711C9.89464 6.01957 10 5.76522 10 5.5H8ZM2 5.5C2 5.76522 2.10536 6.01957 2.29289 6.20711C2.48043 6.39464 2.73478 6.5 3 6.5C3.26522 6.5 3.51957 6.39464 3.70711 6.20711C3.89464 6.01957 4 5.76522 4 5.5H2ZM4 5.5C4 4.96957 4.21071 4.46086 4.58579 4.08579C4.96086 3.71071 5.46957 3.5 6 3.5V1.5C4.93913 1.5 3.92172 1.92143 3.17157 2.67157C2.42143 3.42172 2 4.43913 2 5.5H4ZM6 3.5C6.53043 3.5 7.03914 3.71071 7.41421 4.08579C7.78929 4.46086 8 4.96957 8 5.5H10C10 4.43913 9.57857 3.42172 8.82843 2.67157C8.07828 1.92143 7.06087 1.5 6 1.5V3.5Z" fill="black"/>
<path d="M14 5.5C14 5.76522 14.1054 6.01957 14.2929 6.20711C14.4804 6.39464 14.7348 6.5 15 6.5C15.2652 6.5 15.5196 6.39464 15.7071 6.20711C15.8946 6.01957 16 5.76522 16 5.5H14ZM8 5.5C8 5.76522 8.10536 6.01957 8.29289 6.20711C8.48043 6.39464 8.73478 6.5 9 6.5C9.26522 6.5 9.51957 6.39464 9.70711 6.20711C9.89464 6.01957 10 5.76522 10 5.5H8ZM10 5.5C10 4.96957 10.2107 4.46086 10.5858 4.08579C10.9609 3.71071 11.4696 3.5 12 3.5V1.5C10.9391 1.5 9.92172 1.92143 9.17157 2.67157C8.42143 3.42172 8 4.43913 8 5.5H10ZM12 3.5C12.5304 3.5 13.0391 3.71071 13.4142 4.08579C13.7893 4.46086 14 4.96957 14 5.5H16C16 4.43913 15.5786 3.42172 14.8284 2.67157C14.0783 1.92143 13.0609 1.5 12 1.5V3.5Z" fill="black"/>
<path d="M3 5.5V14.5M9 5.5V14.5" stroke="black" stroke-width="2" stroke-linecap="round" stroke-linejoin="round"/>
<path d="M15 5.5V14.5C15 17 16.25 19.5 21 19.5" stroke="black" stroke-width="2" stroke-linecap="round"/>
</svg>
